<svg width="40" height="40" viewBox="0 0 40 40" fill="none" xmlns="http://www.w3.org/2000/svg">
    <path d="M33.8617 6.92604C31.3122 5.75623 28.5783 4.89437 25.7198 4.40075C25.6678 4.39123 25.6158 4.41503 25.589 4.46265C25.2374 5.08801 24.8479 5.90384 24.5752 6.54508C21.5007 6.0848 18.442 6.0848 15.4305 6.54508C15.1577 5.88959 14.7541 5.08801 14.401 4.46265C14.3741 4.41662 14.3221 4.39281 14.2701 4.40075C11.4132 4.8928 8.67927 5.75466 6.12823 6.92604C6.10614 6.93556 6.08721 6.95145 6.07465 6.97206C0.888986 14.7193 -0.531584 22.2762 0.1653 29.7393C0.168453 29.7758 0.18895 29.8108 0.21733 29.833C3.63868 32.3455 6.95285 33.8709 10.2055 34.8819C10.2575 34.8978 10.3127 34.8788 10.3458 34.8359C11.1152 33.7852 11.8011 32.6773 12.3891 31.5122C12.4238 31.444 12.3907 31.3631 12.3198 31.3361C11.2319 30.9234 10.196 30.4202 9.19955 29.8489C9.12073 29.8028 9.11442 29.6901 9.18693 29.6361C9.39662 29.479 9.60637 29.3155 9.80659 29.1504C9.84282 29.1203 9.8933 29.1139 9.93589 29.133C16.4821 32.1218 23.5692 32.1218 30.0383 29.133C30.0808 29.1123 30.1313 29.1187 30.1691 29.1489C30.3694 29.3139 30.5791 29.479 30.7904 29.6361C30.8629 29.6901 30.8581 29.8028 30.7793 29.8489C29.7829 30.4313 28.747 30.9234 27.6575 31.3345C27.5866 31.3615 27.555 31.444 27.5897 31.5122C28.1904 32.6757 28.8763 33.7836 29.6315 34.8343C29.663 34.8788 29.7198 34.8978 29.7718 34.8819C33.0402 33.8709 36.3544 32.3455 39.7757 29.833C39.8057 29.8108 39.8246 29.7774 39.8278 29.7409C40.6618 21.1127 38.4308 13.6178 33.9137 6.97364C33.9026 6.95145 33.8838 6.93556 33.8617 6.92604ZM13.3667 25.1951C11.3958 25.1951 9.77189 23.3856 9.77189 21.1635C9.77189 18.9414 11.3643 17.132 13.3667 17.132C15.3848 17.132 16.993 18.9572 16.9615 21.1635C16.9615 23.3856 15.369 25.1951 13.3667 25.1951ZM26.6579 25.1951C24.6871 25.1951 23.0632 23.3856 23.0632 21.1635C23.0632 18.9414 24.6556 17.132 26.6579 17.132C28.6761 17.132 30.2842 18.9572 30.2527 21.1635C30.2527 23.3856 28.6761 25.1951 26.6579 25.1951Z" fill="white"/>
</svg>
