<svg width="28" height="24" viewBox="0 0 28 24" fill="none" xmlns="http://www.w3.org/2000/svg">
<path d="M0.414711 9.62502H7.27041L12.8464 23.0074C12.6291 22.8866 12.4268 22.7292 12.2488 22.535L0.414711 9.62502Z" fill="#1E1E1E"/>
<path d="M0.380859 7.25002L5.60624 0.979562C6.05748 0.438079 6.72592 0.125 7.43077 0.125H9.58118L7.20617 7.25002H0.380859Z" fill="#1E1E1E"/>
<path d="M12.0846 0.125L9.70964 7.25002H18.2895L15.9145 0.125H12.0846Z" fill="#1E1E1E"/>
<path d="M18.418 0.125L20.793 7.25002H27.6183L22.3929 0.979562C21.9417 0.438078 21.2732 0.125 20.5684 0.125H18.418Z" fill="#1E1E1E"/>
<path d="M27.5844 9.62502H20.7287L15.1528 23.0074C15.3701 22.8866 15.5723 22.7292 15.7503 22.535L27.5844 9.62502Z" fill="#1E1E1E"/>
<path d="M13.9996 19.6L9.84332 9.62502H18.1558L13.9996 19.6Z" fill="#1E1E1E"/>
</svg>
