<svg width="40" height="40" viewBox="0 0 40 40" fill="none" xmlns="http://www.w3.org/2000/svg">
    <path d="M12.5792 36.2511C27.6736 36.2511 35.9296 23.7455 35.9296 12.9007C35.9296 12.5455 35.9296 12.1919 35.9056 11.8399C37.5117 10.6782 38.8982 9.23971 40 7.5919C38.5023 8.25591 36.9134 8.69116 35.2864 8.8831C36.9997 7.85759 38.2819 6.24441 38.8944 4.3439C37.2835 5.29992 35.5211 5.97361 33.6832 6.3359C32.4459 5.0202 30.8094 4.14897 29.027 3.85704C27.2446 3.56512 25.4157 3.86876 23.8233 4.72099C22.2309 5.57322 20.9637 6.92653 20.2179 8.57149C19.4721 10.2164 19.2892 12.0613 19.6976 13.8207C16.4348 13.657 13.2429 12.8091 10.3291 11.3319C7.41526 9.85473 4.84461 7.78134 2.784 5.2463C1.73455 7.05296 1.41312 9.19168 1.88517 11.227C2.35721 13.2623 3.58724 15.0412 5.3248 16.2015C4.01872 16.1632 2.74108 15.8109 1.6 15.1743V15.2783C1.60052 17.1731 2.25642 19.0093 3.45645 20.4756C4.65648 21.9419 6.32677 22.9479 8.184 23.3231C6.9758 23.6527 5.70812 23.7008 4.4784 23.4639C5.00302 25.0944 6.02405 26.5203 7.39873 27.5421C8.77342 28.564 10.433 29.1307 12.1456 29.1631C10.4441 30.5006 8.49552 31.4894 6.41146 32.0731C4.32739 32.6568 2.14869 32.8238 0 32.5647C3.75306 34.9731 8.11987 36.2506 12.5792 36.2447" fill="white"/>
</svg>